<?xml version="1.0" encoding="UTF-8"?>
<svg id="Ebene_2" xmlns="http://www.w3.org/2000/svg" viewBox="0 0 630.98 125.39">
  <defs>
    <style>
      .cls-1 {
        fill: #fff;
      }

      .cls-2 {
        fill: #b5391b;
      }

      .cls-3 {
        fill: #c63918;
      }
    </style>
  </defs>
  <g id="Ebene_1-2" data-name="Ebene_1">
    <path d="M166.21,52.59c0-2.01-.03-3.97-.08-5.84-.06-1.88-.12-3.04-.18-3.49h6.82c0,.14.06.97.18,2.45.12,1.48.17,2.94.17,4.36h.17c1.57-2.62,3.54-4.55,5.95-5.8,2.41-1.25,5.32-1.87,8.7-1.87,4.06,0,7.44,1.01,10.13,3.07,2.71,2.05,4.7,4.83,5.99,8.36,1.29,3.53,1.93,7.6,1.93,12.2s-.66,8.67-1.97,12.31c-1.33,3.63-3.38,6.53-6.15,8.66-2.76,2.13-6.21,3.2-10.36,3.2-3.09,0-5.94-.63-8.54-1.89-2.59-1.26-4.5-3.11-5.68-5.53h-.24c.03.09.05.84.09,2.24.05,1.39.06,2.86.06,4.41v18.04h-6.98v-54.87ZM186.36,84.18c4.08,0,7.15-1.61,9.21-4.85,2.05-3.22,3.08-7.6,3.08-13.14s-1.02-9.64-3.03-12.82c-2.04-3.18-5.09-4.77-9.19-4.77-3.78,0-6.92,1.39-9.46,4.15-2.53,2.77-3.79,7.47-3.79,14.08,0,5.89,1.21,10.23,3.62,13.08,2.41,2.83,5.59,4.27,9.55,4.27h0ZM229,90.1c-4.85,0-8.54-1.21-11.08-3.61-2.55-2.4-3.81-5.7-3.81-9.9,0-5.09,1.95-8.72,5.86-10.9,3.89-2.19,8.87-3.32,14.88-3.41l10.04-.18v-2.8c0-3.4-.91-6.08-2.74-8.02-1.83-1.92-4.43-2.9-7.81-2.9-2.69,0-5.12.53-7.23,1.56-2.14,1.03-4.38,2.8-6.74,5.27l-4.43-4.52c2.07-2.42,4.65-4.38,7.73-5.91,3.08-1.53,6.66-2.31,10.76-2.31,3.66,0,6.79.67,9.41,2.02s4.59,3.25,5.94,5.68c1.35,2.45,2.02,5.24,2.02,8.44v20.77c0,3.75.12,7.06.34,9.92h-6.73c-.22-2.15-.34-4.56-.34-7.24h-.18c-1.78,2.65-3.9,4.65-6.37,6-2.45,1.35-5.62,2.02-9.52,2.02h0ZM230.59,84.18c3.02,0,5.61-.59,7.76-1.78,2.16-1.17,3.79-2.71,4.9-4.57,1.1-1.88,1.65-3.84,1.65-5.89v-4.34l-8.47.17c-4.57.09-8.23.79-10.97,2.11-2.74,1.31-4.11,3.58-4.11,6.8,0,2.29.81,4.12,2.42,5.46,1.61,1.35,3.9,2.04,6.82,2.04h0ZM263.21,52.92c0-1.66-.03-3.61-.08-5.82-.08-2.23-.14-3.51-.18-3.84h6.53c.05.3.13,1.42.19,3.38.09,1.96.14,3.52.14,4.65h.17c1.59-2.95,3.53-5.18,5.82-6.66,2.31-1.49,5.31-2.23,8.99-2.23,4.94,0,8.6,1.46,10.98,4.38,2.41,2.93,3.6,6.92,3.6,12.01v30.53h-6.95v-29.2c0-3.7-.79-6.55-2.35-8.52-1.57-2-4.1-2.99-7.63-2.99-2.45,0-4.6.54-6.46,1.64-1.86,1.1-3.3,2.68-4.32,4.78-1.02,2.07-1.52,4.55-1.52,7.42v26.87h-6.96v-36.39ZM326.9,90.19c-4.12,0-7.56-.98-10.31-2.93-2.76-1.93-4.81-4.66-6.16-8.2-1.35-3.52-2.02-7.65-2.02-12.38s.71-8.99,2.15-12.55c1.44-3.56,3.6-6.34,6.47-8.32,2.9-2,6.44-2.99,10.67-2.99,3.02,0,5.71.63,8.09,1.89,2.38,1.26,4.19,3.11,5.41,5.53h.09c-.06-.52-.09-2.46-.09-5.85v-18.14h7.09v53.66c0,5.13.05,8.27.15,9.41h-6.73c-.08-.39-.17-1.34-.23-2.82-.08-1.49-.1-2.93-.1-4.32h-.18c-1.4,2.68-3.34,4.66-5.79,6-2.44,1.34-5.28,2.01-8.52,2.01h0ZM327.95,84c4.06,0,7.29-1.43,9.68-4.32,2.38-2.87,3.57-7.45,3.57-13.74s-1.15-10.33-3.47-13.04c-2.32-2.68-5.4-4.03-9.27-4.03-4.32,0-7.51,1.51-9.61,4.54-2.07,3.02-3.12,7.37-3.12,13.05s.98,9.81,2.98,12.9c1.98,3.11,5.08,4.64,9.24,4.64h0ZM373.21,90.1c-4.86,0-8.56-1.21-11.1-3.61-2.55-2.4-3.81-5.7-3.81-9.9,0-5.09,1.96-8.72,5.86-10.9,3.89-2.19,8.87-3.32,14.88-3.41l10.05-.18v-2.8c0-3.4-.91-6.08-2.76-8.02-1.83-1.92-4.43-2.9-7.8-2.9-2.71,0-5.12.53-7.24,1.56-2.14,1.03-4.38,2.8-6.73,5.27l-4.45-4.52c2.09-2.42,4.65-4.38,7.74-5.91,3.08-1.53,6.65-2.31,10.75-2.31,3.67,0,6.79.67,9.41,2.02s4.6,3.25,5.95,5.68c1.35,2.45,2.02,5.24,2.02,8.44v20.77c0,3.75.12,7.06.34,9.92h-6.74c-.22-2.15-.34-4.56-.34-7.24h-.17c-1.79,2.65-3.92,4.65-6.37,6-2.46,1.35-5.63,2.02-9.52,2.02h0ZM374.8,84.18c3,0,5.59-.59,7.74-1.78,2.16-1.17,3.79-2.71,4.9-4.57,1.11-1.88,1.66-3.84,1.66-5.89v-4.34l-8.48.17c-4.56.09-8.23.79-10.97,2.11-2.74,1.31-4.11,3.58-4.11,6.8,0,2.29.81,4.12,2.44,5.46,1.61,1.35,3.89,2.04,6.82,2.04h0Z"/>
    <path class="cls-3" d="M408.96,53.61c0-4.34-.12-7.78-.34-10.35h11.07c.12.3.23,1.16.35,2.63.12,1.47.15,2.8.15,4.01h.18c3.03-5.06,7.91-7.59,14.65-7.59,3.75,0,6.95,1.01,9.57,3.02,2.64,2.02,4.64,4.82,5.97,8.39,1.33,3.6,2,7.69,2,12.32s-.72,8.89-2.16,12.53c-1.46,3.63-3.56,6.48-6.35,8.56-2.77,2.05-6.13,3.08-10.04,3.08-2.89,0-5.53-.58-7.95-1.75-2.44-1.16-4.32-3.02-5.68-5.58h-.26c.06.31.1,1.24.17,2.77.05,1.53.09,2.9.09,4.12v17.71h-11.42v-53.85ZM430.76,81.03c3.02,0,5.41-1.25,7.18-3.76,1.78-2.51,2.67-6.26,2.67-11.24,0-4.68-.88-8.27-2.6-10.76-1.73-2.49-4.11-3.72-7.15-3.72-1.84,0-3.58.46-5.18,1.4-1.6.94-2.91,2.51-3.93,4.73-1.02,2.22-1.55,5.14-1.55,8.79s.5,6.37,1.49,8.53c.99,2.18,2.28,3.72,3.88,4.65,1.59.91,3.32,1.38,5.19,1.38h0ZM475.26,37.15c-2.09,0-3.74-.57-4.97-1.7-1.24-1.13-1.84-2.63-1.84-4.47s.61-3.38,1.84-4.51c1.24-1.15,2.89-1.71,4.97-1.71s3.66.57,4.88,1.71c1.22,1.13,1.83,2.63,1.83,4.51s-.61,3.3-1.84,4.45c-1.24,1.15-2.87,1.73-4.87,1.73h0ZM455.89,43.26h25.03v46.06h-11.42v-36.98h-13.61v-9.07ZM494.5,53.61c0-4.34-.12-7.78-.34-10.35h11.06c.12.3.23,1.16.35,2.63.12,1.47.17,2.8.17,4.01h.17c3.04-5.06,7.93-7.59,14.65-7.59,3.75,0,6.96,1.01,9.59,3.02,2.64,2.02,4.64,4.82,5.95,8.39,1.34,3.6,2.01,7.69,2.01,12.32s-.72,8.89-2.16,12.53c-1.46,3.63-3.56,6.48-6.35,8.56-2.78,2.05-6.13,3.08-10.05,3.08-2.87,0-5.52-.58-7.95-1.75-2.42-1.16-4.32-3.02-5.68-5.58h-.24c.06.31.1,1.24.15,2.77.06,1.53.09,2.9.09,4.12v17.71h-11.4v-53.85ZM516.3,81.03c3,0,5.4-1.25,7.18-3.76s2.67-6.26,2.67-11.24c0-4.68-.88-8.27-2.6-10.76-1.74-2.49-4.12-3.72-7.15-3.72-1.86,0-3.58.46-5.18,1.4-1.6.94-2.93,2.51-3.94,4.73-1.02,2.22-1.53,5.14-1.53,8.79s.5,6.37,1.49,8.53c.99,2.18,2.28,3.72,3.88,4.65,1.59.91,3.31,1.38,5.19,1.38h0ZM567.21,90.19c-4.64,0-8.62-.9-11.96-2.69-3.34-1.79-5.9-4.46-7.68-8.05-1.79-3.57-2.69-7.98-2.69-13.25s.95-9.73,2.89-13.31c1.95-3.56,4.52-6.21,7.78-7.93,3.26-1.71,6.88-2.56,10.88-2.56,4.69,0,8.54,1.01,11.58,3.03,3.04,2.04,5.26,4.73,6.65,8.07,1.39,3.35,2.09,7.06,2.09,11.11,0,1.59-.09,3.13-.26,4.64h-29.56c0,3.65.89,6.58,2.65,8.83,1.75,2.24,4.48,3.34,8.18,3.34,1.64,0,3.12-.17,4.45-.54,1.33-.37,2.59-.9,3.8-1.61,1.22-.7,2.76-1.71,4.57-3.02l4.77,7.51c-2.68,2.05-5.37,3.63-8.11,4.76-2.72,1.12-6.07,1.69-10.04,1.69h0ZM575.59,61.31c-.17-3.58-1.02-6.24-2.58-7.91-1.55-1.69-3.76-2.54-6.66-2.54-2.71,0-4.88.86-6.57,2.58-1.66,1.71-2.59,4.33-2.76,7.87h18.57ZM612.15,90.19c-3.97,0-7.51-.54-10.63-1.6-3.11-1.07-6.02-2.77-8.75-5.09l5.23-7.89c2.5,2,4.86,3.48,7.05,4.48,2.22.99,4.57,1.48,7.1,1.48s4.56-.35,6-1.04c1.46-.7,2.18-1.92,2.18-3.69,0-1.21-.37-2.2-1.12-2.94-.72-.73-1.66-1.31-2.82-1.73-1.16-.4-2.78-.89-4.92-1.42l-2.2-.55c-3.08-.77-5.63-1.65-7.69-2.6-2.06-.98-3.75-2.37-5.08-4.2-1.33-1.83-1.97-4.23-1.97-7.23s.68-5.32,2.06-7.38c1.38-2.06,3.4-3.65,6.07-4.76,2.67-1.11,5.89-1.65,9.68-1.65,3.54,0,6.82.54,9.79,1.65s5.49,2.73,7.54,4.88l-5.84,6.89c-1.49-1.47-3.21-2.63-5.14-3.49-1.93-.88-4.03-1.29-6.28-1.29-4.88,0-7.32,1.4-7.32,4.25,0,1.08.32,1.93.94,2.58.64.64,1.48,1.15,2.5,1.51,1.02.39,2.5.79,4.43,1.24l2.13.52c3.35.85,6.12,1.77,8.3,2.74,2.19.99,3.99,2.44,5.44,4.39,1.44,1.95,2.15,4.51,2.15,7.73,0,2.91-.75,5.45-2.24,7.59-1.48,2.11-3.65,3.76-6.47,4.9-2.82,1.13-6.19,1.7-10.12,1.7h0Z"/>
    <g>
      <path class="cls-1" d="M134.57,58.93c0,32.2-26.1,58.3-58.3,58.3-4.32-.23-8.63-.72-12.9-1.46,0,0-23.27-8.78-35.63-44.51-2.96-8.51-7.58-29.85-4.09-37.4C37.51,4.81,72.31-7.51,101.37,6.36c20.29,9.68,33.2,30.16,33.19,52.64v-.07Z"/>
      <path class="cls-1" d="M89.55,69.35c1.59.1,2.97-1.08,3.12-2.66.49-1.49-.29-3.11-1.76-3.66-1.36-.3-2.73.9-3.09,2.63-.52,1.49.25,3.13,1.73,3.69Z"/>
      <path class="cls-1" d="M114.38,83.61c-.4,1.14-1.06,2.18-1.93,3.02-.92,1.11-2.05,2.02-3.32,2.69,0,0-1.76,3.66-1.36,3.76l2.36.5c4.06-5.88,4.42-8.74,4.25-9.97Z"/>
      <path class="cls-2" d="M27.32,85.67c.27,2.73.83,5.43,1.66,8.04l.4.96c1.24,3.62,2.98,7.04,5.19,10.17,2.06,2.43,6.65,7.81,7.31,8.74-.27,0-4.65-1.66-7.68-2.89-6.42-2.61-12.37-6.27-17.58-10.84-2.42-2.17-4.58-4.63-6.42-7.31-2.42-3.41-4.23-7.21-5.35-11.24-1.5-5.41-1.84-11.07-1-16.62.66-4.62,1.66-9.17,2.53-13.73,1.08-4.68,1.66-9.46,1.73-14.26,0-4.05-.7-8.07-2.09-11.87-1.16-2.96-2.69-5.92-3.92-8.84-.6-1.33-1.4-2.56-2.09-3.89l19.71,15.19,2.19,1.66,1.93,1.6c.9.73,1.76,1.46,2.59,2.23,3.75,3.14,7.1,6.74,9.97,10.7,2.54,3.68,4.46,7.76,5.68,12.07,1.3,4.51,2.03,9.17,2.16,13.86,0,2.76.17,5.48.23,8.24v3.02c2.79-7.74,3.82-16.01,2.99-24.2-.67-7.81-3.35-15.31-7.78-21.77,2.31,1.81,4.53,3.74,6.65,5.78,4.34,4.5,8.08,9.54,11.14,14.99,1.88,3.22,3.37,6.64,4.45,10.2.71,2.43,1.29,4.89,1.73,7.38.37,2.5.49,5.02.37,7.55-.05,3.14-.51,6.25-1.36,9.27-1.24,5.27-1.74,10.68-1.5,16.09.05.88.16,1.76.33,2.63.41,3.48,1.04,6.93,1.86,10.34.43,1.89,1,4.06,1.7,6.45-3.55-2.37-6.84-5.11-9.81-8.18-2.99-2.89-6.02-6.08-8.54-8.91-1.89-2.06-3.49-3.92-4.62-5.32-7.97-9.18-13.02-20.52-14.53-32.58v.3c-.6,4.96-.68,9.98-.23,14.96Z"/>
      <path class="cls-2" d="M31.45,20.92c7.02-1.21,14.18-1.48,21.27-.83-8.59,1.78-16.85,3.27-24.5,7.58l3.88,1.3,2.75,1.02,4.33,1.87c2.96-4.22,7.89-7.46,12.81-10.52.96-.2,2.07-.91,3.2-1.04-4.55,5.45-6.65,13.79-5.35,15.72.63.74,1.61,1.09,2.56.9,3.38-.73,6.65-1.91,9.71-3.52,3.92-1.73,10.17,1.16,9.21-7.38-.14-1.56-.47-3.1-.96-4.59-.63-2.39-2.23-4.41-4.42-5.55,2.96,0,5.19,2.29,6.45,5.92,5.16.83,10.24,2.1,15.19,3.79l2.39.96,1.13.5c1.55.6,3.06,1.3,4.52,2.09,1.99,1.16,5.02,3.32,5.02,3.32,0,0,7.51-4.32-.57-14.93l-.17-.2c.86.59,1.61,1.32,2.23,2.16,8.08,10.6-.2,15.49-.2,15.49l-.27-.27c1.13,1.32,2.12,2.76,2.96,4.29,6.65,12.13,5.42,16.62,5.25,22.17h0c-.4-4.32-.5-8.08-1.79-6.65s-1.33,4.19-.57,8.34c.86,0,1.73,1.26,1.99,2.96.31,1.15.08,2.37-.63,3.32,1.03,4.35,1.46,5.38,2.59,5.62h0c.66,2.63,1.53,5.21,2.59,7.71h0c-.23,0-.7,0-1.46.4-2.69,1.53-2.83.83-5.52,0-2.69-.83-5.62-1.53-6.02.47-.6,3.16,2.79,3.12,4.79,4.32,1.99,1.2-1.23,3.52-1.23,3.52l-4.12,2.03c-4.29,1.86-10.24-3.32-10.24-3.32.88,2.06,2.38,3.79,4.29,4.95,3.76,2.83,10.84-1,10.84-1,.71.54,1.62.74,2.49.53.7-.27,2.13-1.06,2.13-1.06l-2.36-.5c-.4,0,1.36-3.76,1.36-3.76,1.27-.66,2.4-1.56,3.32-2.66.86-.85,1.52-1.89,1.93-3.02.17,1.2-.2,4.06-4.39,9.97-8.61,12.07-19.28,6.65-21.71,4.82,1.32,5.57,2.26,11.22,2.83,16.92l4.99-1.93c30.29-10.93,45.98-44.35,35.05-74.63C120.08,8.24,86.67-7.45,56.38,3.48c-9.71,3.5-18.31,9.52-24.93,17.44h0"/>
      <path class="cls-2" d="M82.24,116.49c1.04-6.01,1.67-12.09,1.89-18.18l1.53-1.13c-3.86-.19-7.65-1.05-11.2-2.56-.47-.2-5.65,2.06-8.38,1.36.4,1.1,4.99,20.51,4.99,20.51,3.71.41,7.46.41,11.17,0Z"/>
      <path class="cls-2" d="M91.31,75.97c1.5-2.96,6.15-7.01,4.22-13.76-.86-3.57-4.45-5.77-8.02-4.91-2.09.5-3.81,1.99-4.61,3.98-2.73,7.78-1.63,12.86,0,15.16,1.22,2.26,4.04,3.11,6.31,1.89.95-.51,1.7-1.35,2.1-2.35Z"/>
      <path class="cls-1" d="M87.82,65.66c.37-1.73,1.73-2.93,3.09-2.63,1.47.55,2.25,2.16,1.76,3.66-.16,1.58-1.54,2.76-3.12,2.66-1.48-.56-2.24-2.19-1.73-3.69Z"/>
    </g>
  </g>
</svg>